<?xml version="1.0" standalone="no"?>
<!DOCTYPE svg PUBLIC "-//W3C//DTD SVG 20010904//EN"
 "http://www.w3.org/TR/2001/REC-SVG-20010904/DTD/svg10.dtd">
<svg version="1.0" xmlns="http://www.w3.org/2000/svg"
 width="1024.000000pt" height="1024.000000pt" viewBox="0 0 1024.000000 1024.000000"
 preserveAspectRatio="xMidYMid meet">

<g transform="translate(0.000000,1024.000000) scale(0.100000,-0.100000)"
fill="#000000" stroke="none">
<path d="M1590 6224 c-174 -21 -333 -89 -426 -182 -109 -108 -163 -239 -171
-412 -8 -176 21 -289 102 -399 87 -118 203 -189 492 -300 205 -79 268 -109
317 -151 82 -73 104 -201 51 -299 -51 -93 -160 -138 -311 -129 -150 10 -253
72 -305 182 -16 34 -29 69 -29 79 0 9 -3 17 -6 17 -3 0 -82 -46 -175 -102
-163 -99 -170 -104 -165 -131 21 -110 155 -264 286 -330 245 -123 581 -127
819 -10 102 50 222 169 269 266 90 186 95 419 13 591 -84 174 -240 283 -581
406 -238 86 -294 121 -336 206 -22 46 -26 63 -21 106 4 28 15 67 25 87 24 45
90 97 145 112 54 15 169 15 227 -1 100 -26 190 -113 206 -197 3 -18 8 -33 10
-33 4 0 240 162 297 204 15 11 27 25 27 31 0 7 -14 41 -32 76 -68 136 -214
243 -394 289 -77 20 -259 33 -334 24z"/>
<path d="M5940 5110 l0 -1100 215 0 215 0 0 150 0 149 122 136 c67 74 125 135
128 135 4 0 92 -128 196 -285 l189 -284 253 -1 c138 0 252 3 252 6 0 8 -27 47
-327 476 -145 207 -263 381 -263 386 0 10 85 106 369 417 85 94 166 182 180
198 l25 27 -280 0 -279 0 -275 -320 c-151 -175 -279 -319 -285 -319 -7 -1 -9
225 -7 664 l3 665 -215 0 -216 0 0 -1100z"/>
<path d="M7650 5110 l0 -1100 215 0 215 0 0 408 c0 448 6 502 58 596 35 62
106 118 179 141 82 26 261 18 327 -14 86 -42 140 -112 174 -226 12 -40 16
-134 19 -477 l5 -428 214 0 214 0 0 378 c0 207 -5 425 -10 483 -42 445 -267
669 -669 669 -194 0 -331 -44 -453 -143 -32 -26 -59 -47 -60 -47 -2 0 -2 193
0 430 l2 430 -215 0 -215 0 0 -1100z"/>
<path d="M3125 5536 c-287 -66 -488 -262 -566 -551 -32 -117 -33 -347 -2 -460
67 -244 211 -409 434 -495 248 -95 556 -75 765 51 65 40 169 138 157 149 -4 4
-61 55 -125 114 l-117 107 -65 -45 c-217 -148 -535 -91 -639 116 -14 29 -29
72 -33 95 l-6 41 571 -6 c533 -5 571 -4 577 12 10 27 -13 253 -35 341 -35 136
-93 237 -191 335 -68 68 -103 94 -170 127 -47 23 -112 49 -145 58 -83 23 -329
29 -410 11z m363 -380 c87 -40 138 -99 166 -193 l7 -23 -355 0 -355 0 15 43
c19 55 85 132 138 159 77 40 117 48 221 45 85 -2 109 -7 163 -31z"/>
<path d="M4796 5530 c-360 -91 -586 -424 -563 -829 8 -131 28 -212 77 -316
121 -251 357 -395 675 -412 181 -9 332 22 453 94 68 40 172 131 172 151 0 6
-55 60 -121 120 l-122 110 -42 -32 c-164 -126 -430 -122 -582 9 -45 38 -100
137 -109 196 l-6 36 571 -5 c544 -5 571 -4 577 13 10 26 -12 257 -31 335 -9
36 -37 108 -62 160 -39 81 -59 108 -132 180 -93 93 -171 141 -296 180 -103 33
-347 38 -459 10z m391 -375 c69 -31 133 -92 158 -151 28 -68 51 -64 -335 -64
-308 0 -350 2 -350 15 0 31 49 112 90 149 75 67 138 86 275 82 84 -2 110 -7
162 -31z"/>
</g>
</svg>
