<svg xmlns="http://www.w3.org/2000/svg" width="1024" height="1024" viewBox="0 0 1024 1024" version="1.1"><path d="M 794 367.124 C 782.081 373.759, 768.256 386.290, 759.963 397.975 C 758.609 399.884, 756.949 402.042, 756.275 402.770 C 755.601 403.498, 754.274 405.760, 753.327 407.797 C 752.379 409.833, 751.331 411.725, 750.996 412 C 749.025 413.622, 741.762 433.487, 739.114 444.500 C 736.428 455.670, 735.107 469.344, 736.898 467.450 C 737.392 466.928, 739.287 462, 741.109 456.500 C 747.291 437.841, 756.521 422.807, 770.701 408.301 C 779.187 399.620, 785.733 394.141, 793.500 389.220 C 796.250 387.478, 798.973 385.703, 799.551 385.276 C 802.042 383.436, 805.082 382, 806.486 382 C 807.319 382, 808 381.550, 808 381 C 808 380.450, 808.589 380, 809.309 380 C 810.029 380, 811.491 379.351, 812.559 378.558 C 814.412 377.182, 814.207 376.819, 808.029 370.558 C 804.470 366.951, 801.095 364.014, 800.529 364.031 C 799.963 364.048, 797.025 365.440, 794 367.124 M 825.500 385.224 C 823.850 385.780, 821.719 386.632, 820.764 387.118 C 819.809 387.603, 818.459 388.006, 817.764 388.013 C 814.500 388.046, 794.443 399.670, 786.089 406.370 C 774.014 416.054, 756.749 436.771, 750.979 448.500 C 750.167 450.150, 749.277 451.725, 749 452 C 748.723 452.275, 747.859 453.737, 747.080 455.248 C 744.585 460.090, 746.630 459.251, 749.955 454.070 C 753.380 448.733, 772.123 430.222, 777.048 427.312 C 778.672 426.353, 780 425.216, 780 424.784 C 780 424.353, 780.481 424, 781.070 424 C 781.658 424, 784.021 422.714, 786.320 421.141 C 792.202 417.118, 803.591 411.401, 809.500 409.504 C 812.250 408.621, 815.400 407.527, 816.500 407.072 C 819.058 406.014, 826.593 404.359, 835.500 402.898 C 839.350 402.267, 842.658 401.611, 842.852 401.440 C 843.046 401.269, 841.249 397.275, 838.859 392.565 C 834.812 384.589, 834.307 384.007, 831.507 384.106 C 829.853 384.165, 827.150 384.668, 825.500 385.224 M 834.500 414.553 C 833.950 414.787, 830.800 415.408, 827.500 415.933 C 818.522 417.360, 813.883 418.486, 810 420.180 C 808.075 421.020, 804.025 422.774, 801 424.080 C 787.743 429.800, 771.644 441.411, 759.500 454.012 L 753.500 460.238 761.500 454.319 C 765.900 451.063, 770.850 447.748, 772.500 446.951 C 774.150 446.155, 775.725 445.271, 776 444.988 C 777.223 443.728, 786.063 439.936, 792 438.124 C 808.337 433.138, 820.065 431.537, 834.584 432.312 C 846.474 432.947, 859.479 434.463, 862.250 435.536 C 864.486 436.402, 864.580 433.324, 862.555 425.550 C 859.585 414.148, 860.109 414.527, 846.988 414.313 C 840.670 414.211, 835.050 414.318, 834.500 414.553 M 607.985 443.408 C 599.870 444.883, 599.737 444.969, 597.554 450.202 C 596.568 452.566, 595.365 455.400, 594.881 456.500 C 593.131 460.479, 590.049 470.542, 590.025 472.357 C 590.006 473.723, 590.462 474.033, 591.750 473.529 C 598.225 470.995, 608.549 468.041, 614.500 467.020 C 618.350 466.360, 623.387 465.410, 625.693 464.910 C 631.454 463.660, 654.772 463.754, 664.500 465.066 C 685.326 467.876, 704.547 476.011, 714.289 486.140 C 716.710 488.657, 717.662 488.482, 718.442 485.375 C 719.256 482.133, 716.093 477.050, 708.599 469.556 C 695.877 456.833, 676.082 446.995, 655.440 443.134 C 647.681 441.682, 616.490 441.863, 607.985 443.408 M 824.500 443.626 C 800.634 445.336, 774.077 457.425, 755.708 474.941 L 748.678 481.645 750.997 484.782 L 753.316 487.918 757.274 484.709 C 768.771 475.388, 778.882 470.627, 794.500 467.180 C 806.425 464.547, 837.601 464.971, 854 467.988 C 866.336 470.257, 873.739 471.993, 882.379 474.641 C 884.511 475.294, 884.473 474.787, 881.482 462.500 C 878.275 449.327, 878.296 449.349, 867 447.137 C 863.975 446.545, 859.250 445.617, 856.500 445.075 C 850.781 443.949, 831.923 443.095, 824.500 443.626" stroke="none" fill="#08c1bd" fill-rule="evenodd"/><path d="M 670.260 391.871 C 664.190 396.930, 661.455 399.799, 662.107 400.424 C 662.323 400.631, 665.258 401.917, 668.630 403.281 C 674.256 405.558, 685.651 412.564, 688.821 415.695 C 689.548 416.413, 690.496 417, 690.928 417 C 692.645 417, 708.326 433.659, 713.381 440.853 C 716.337 445.059, 720.839 452.663, 723.387 457.750 C 725.935 462.837, 728.268 467, 728.571 467 C 729.951 467, 726.088 449.349, 722.772 440.500 C 720.195 433.623, 715.913 424.902, 712.472 419.524 C 705.765 409.039, 685.637 390.590, 677.760 387.707 C 676.565 387.270, 674.214 388.575, 670.260 391.871 M 625.382 409.424 C 622.294 413.848, 618.954 419.188, 617.417 422.160 C 615.361 426.136, 616.199 426.664, 624.817 426.829 C 644.653 427.207, 666.031 431.218, 680.922 437.354 C 684.455 438.809, 687.942 440, 688.672 440 C 689.403 440, 690 440.450, 690 441 C 690 441.550, 690.493 442, 691.096 442 C 691.698 442, 693.498 442.930, 695.095 444.068 C 697.002 445.425, 698.771 445.918, 700.249 445.502 C 701.986 445.014, 702.158 445.103, 701.005 445.895 C 699.714 446.781, 699.783 447.127, 701.505 448.429 C 704.785 450.907, 707.983 450.099, 705.690 447.371 C 703.212 444.423, 693.032 434.712, 690.814 433.180 C 689.541 432.301, 687.887 430.982, 687.137 430.249 C 682.082 425.308, 660.282 414.345, 650.706 411.929 C 641.246 409.543, 638.234 408.911, 632.666 408.148 C 627.395 407.424, 626.692 407.548, 625.382 409.424 M 706 450.571 C 706 451.178, 706.835 452, 711.515 456 C 713.716 457.882, 714.089 458.005, 713.021 456.500 C 710.096 452.374, 706 448.916, 706 450.571 M 728.500 484.456 C 719.938 488.567, 720 488.278, 720 523.794 L 720 554.720 725.452 555.283 C 728.450 555.592, 735.200 555.589, 740.452 555.276 L 750 554.706 750 524.813 C 750 496.794, 749.873 494.672, 747.980 490.960 C 746.868 488.782, 745.551 487, 745.051 487 C 744.552 487, 743.427 486.285, 742.553 485.410 C 740.362 483.219, 732.228 482.666, 728.500 484.456 M 838 540.467 L 838 568.985 773.250 569.243 L 708.500 569.500 708.168 583.390 C 707.795 598.967, 707.792 598.960, 714.735 598.985 L 718.970 599 719.235 628.750 L 719.500 658.500 734.750 658.776 L 750 659.052 750 628.419 L 750 597.785 793.985 598.143 L 837.970 598.500 838.235 628.500 L 838.500 658.500 854 658.500 L 869.500 658.500 869.500 585.500 L 869.500 512.500 853.750 512.225 L 838 511.949 838 540.467 M 449.461 613.749 L 449.500 629.500 480.750 629.522 L 512.001 629.543 481.026 629.258 L 450.051 628.972 449.736 613.485 L 449.421 597.998 449.461 613.749 M 329.250 629.748 C 339.013 629.912, 354.988 629.912, 364.750 629.748 C 374.513 629.585, 366.525 629.451, 347 629.451 C 327.475 629.451, 319.488 629.585, 329.250 629.748 M 520.400 644.500 C 520.401 652.750, 520.556 655.992, 520.744 651.704 C 520.932 647.417, 520.931 640.667, 520.742 636.704 C 520.552 632.742, 520.399 636.250, 520.400 644.500" stroke="none" fill="#ee8a32" fill-rule="evenodd"/><path d="M 672.750 388.484 C 668.999 391.785, 669.247 392.811, 673.027 389.631 C 674.875 388.076, 676.692 387.328, 677.691 387.712 C 678.786 388.132, 679.089 387.953, 678.605 387.170 C 677.519 385.412, 675.802 385.798, 672.750 388.484 M 664.133 396.364 C 660.610 399.954, 660.144 400.841, 661.507 401.364 C 663.928 402.293, 664.727 402.113, 663.007 401.026 C 661.775 400.247, 662.204 399.375, 665.460 396.041 C 667.630 393.818, 669.183 392, 668.911 392 C 668.639 392, 666.489 393.964, 664.133 396.364 M 694 398.830 C 697.025 401.602, 701.750 406.277, 704.500 409.221 C 707.250 412.164, 708.842 413.656, 708.038 412.536 C 705.373 408.823, 694.548 397.882, 691.500 395.820 C 689.850 394.704, 690.975 396.058, 694 398.830 M 625.206 408.452 C 623.575 410.377, 623.581 410.403, 625.350 409.028 C 626.426 408.191, 628.829 407.707, 631.100 407.871 C 636.268 408.244, 636.141 407.319, 630.956 406.824 C 627.825 406.526, 626.528 406.893, 625.206 408.452 M 693.500 420.304 C 696.250 422.843, 698.887 424.938, 699.360 424.960 C 700.451 425.011, 693.172 418.318, 690.500 416.813 C 689.400 416.194, 690.750 417.765, 693.500 420.304 M 616.526 421.950 C 613.530 427.744, 613.916 428, 625.667 428 C 638.299 428, 639.158 427.093, 626.744 426.861 C 616.097 426.662, 615.299 426.257, 617.431 422.133 C 618.322 420.410, 618.826 419, 618.551 419 C 618.276 419, 617.365 420.328, 616.526 421.950 M 703.038 428.747 C 703.060 429.161, 705.148 431.750, 707.679 434.500 C 710.210 437.250, 711.667 438.600, 710.917 437.500 C 708.730 434.294, 702.996 427.924, 703.038 428.747 M 688 430.932 C 688 431.519, 688.434 432, 688.963 432 C 689.493 432, 692.981 434.790, 696.713 438.200 C 703.225 444.148, 703.298 444.185, 698.500 439.120 C 692.801 433.103, 688 429.359, 688 430.932 M 682 438.223 C 682.275 438.522, 685.875 440.417, 690 442.434 C 694.511 444.641, 696.504 445.294, 695 444.074 C 693.625 442.958, 691.938 442.034, 691.250 442.022 C 690.563 442.010, 690 441.602, 690 441.117 C 690 440.631, 688.987 440.014, 687.750 439.745 C 686.513 439.477, 684.600 438.903, 683.500 438.469 C 682.400 438.036, 681.725 437.925, 682 438.223 M 715.719 445.628 C 721.380 454.803, 722.350 456.046, 719.491 450.461 C 718.073 447.690, 715.793 444.090, 714.425 442.461 C 712.938 440.691, 713.458 441.964, 715.719 445.628 M 627.750 441.732 C 630.087 441.943, 633.913 441.943, 636.250 441.732 C 638.587 441.522, 636.675 441.349, 632 441.349 C 627.325 441.349, 625.413 441.522, 627.750 441.732 M 704.618 446.448 C 704.946 447.302, 705.728 448.014, 706.357 448.032 C 706.986 448.049, 706.717 448.658, 705.759 449.385 C 704.113 450.636, 704.120 450.799, 705.906 452.415 C 707.360 453.730, 707.894 453.821, 708.234 452.811 C 708.586 451.764, 709.057 451.803, 710.568 453 C 711.610 453.825, 710.975 452.594, 709.158 450.264 C 705.507 445.582, 703.705 444.068, 704.618 446.448 M 711.932 457.335 C 713.819 459.334, 715.618 460.715, 715.930 460.403 C 716.242 460.092, 715.778 459.311, 714.899 458.668 C 714.020 458.026, 713.234 457.050, 713.151 456.500 C 713.068 455.950, 712.663 455.493, 712.250 455.485 C 711.837 455.476, 710.825 455.071, 710 454.585 C 709.175 454.098, 710.044 455.335, 711.932 457.335 M 728.623 462.750 C 728.927 465.087, 728.922 467, 728.612 467 C 728.302 467, 727.157 465.313, 726.068 463.250 C 723.699 458.762, 723.411 459.346, 725.513 464.378 C 728.278 470.995, 731.346 467.967, 728.936 461 C 728.300 459.164, 728.217 459.630, 728.623 462.750 M 725.993 484.893 C 723.623 486.485, 721.096 488.847, 720.378 490.143 C 719.381 491.941, 719.062 500.038, 719.035 524.250 L 719 556 723.750 555.825 L 728.500 555.651 724.250 555.268 L 720 554.885 720 523.990 C 720 504.450, 720.388 492.243, 721.055 490.779 C 723.023 486.459, 728.735 483.499, 735.092 483.506 C 738.248 483.510, 740.305 483.179, 739.665 482.772 C 736.877 480.998, 730.264 482.025, 725.993 484.893 M 750 525.456 L 750 554.912 742.750 555.257 L 735.500 555.603 743.250 555.801 L 751 556 751 526 C 751 509.500, 750.775 496, 750.500 496 C 750.225 496, 750 509.255, 750 525.456 M 277.490 585.500 L 277.500 659.500 330 659.500 L 382.500 659.500 382.542 644.749 L 382.583 629.998 382.265 644.499 L 381.947 659 329.980 659 L 278.013 659 277.747 585.250 L 277.480 511.500 277.490 585.500 M 380.395 525.500 C 380.396 533.200, 380.553 536.218, 380.743 532.206 C 380.934 528.195, 380.932 521.895, 380.741 518.206 C 380.549 514.518, 380.393 517.800, 380.395 525.500 M 554.490 585.500 L 554.500 659.500 571.500 659.500 L 588.500 659.500 589 633.653 C 589.275 619.437, 589.163 607.598, 588.750 607.344 C 588.337 607.090, 588 618.609, 588 632.941 L 588 659 571.506 659 L 555.013 659 554.747 585.250 L 554.480 511.500 554.490 585.500 M 588.422 548 C 588.422 559.275, 588.568 563.888, 588.746 558.250 C 588.924 552.612, 588.924 543.388, 588.746 537.750 C 588.568 532.112, 588.422 536.725, 588.422 548 M 140.320 556 C 140.320 559.575, 140.502 561.038, 140.723 559.250 C 140.945 557.462, 140.945 554.538, 140.723 552.750 C 140.502 550.962, 140.320 552.425, 140.320 556 M 311.404 566 L 311.500 568.500 343.723 568.764 L 375.945 569.028 376.267 583.264 L 376.588 597.500 376.544 583 L 376.500 568.500 344.315 568.236 L 312.130 567.972 311.719 565.736 C 311.365 563.816, 311.321 563.853, 311.404 566 M 482.723 568.742 L 514.947 569.028 515.266 583.764 L 515.586 598.500 515.543 583.500 L 515.500 568.500 483 568.479 L 450.500 568.457 482.723 568.742 M 708 568.750 C 707.999 569.430, 755.966 569.421, 815.500 568.729 C 828.150 568.582, 809.138 568.358, 773.250 568.231 C 737.362 568.104, 708 568.337, 708 568.750 M 750.150 601.131 C 750.274 603.913, 750.370 604.048, 750.701 601.905 L 751.103 599.310 793.301 599.778 C 816.511 600.035, 835.153 599.880, 834.728 599.434 C 834.304 598.988, 815.066 598.429, 791.978 598.192 L 750 597.761 750.150 601.131 M 714.235 599.728 L 717.970 600.119 718.235 629.809 L 718.500 659.500 734.750 659.775 L 751 660.050 750.768 633.775 L 750.535 607.500 750.251 633.276 L 749.966 659.052 734.733 658.776 L 719.500 658.500 719.235 628.750 L 718.970 599 714.735 599.168 L 710.500 599.336 714.235 599.728 M 248.328 615.500 C 248.333 619.350, 248.513 620.802, 248.730 618.728 C 248.946 616.653, 248.943 613.503, 248.722 611.728 C 248.501 609.952, 248.324 611.650, 248.328 615.500 M 311.328 622.500 C 311.333 626.350, 311.513 627.802, 311.730 625.728 C 311.946 623.653, 311.943 620.503, 311.722 618.728 C 311.501 616.952, 311.324 618.650, 311.328 622.500 M 674 659 L 653.500 659.563 674.250 659.781 C 687.562 659.922, 695 659.642, 695 659 C 695 658.450, 694.888 658.098, 694.750 658.219 C 694.612 658.339, 685.275 658.691, 674 659 M 838 659.250 C 838 659.663, 845.200 660, 854 660 C 862.800 660, 870 659.663, 870 659.250 C 870 658.837, 862.800 658.500, 854 658.500 C 845.200 658.500, 838 658.837, 838 659.250 M 442.750 659.749 C 457.187 659.905, 480.812 659.905, 495.250 659.749 C 509.688 659.593, 497.875 659.465, 469 659.465 C 440.125 659.465, 428.313 659.593, 442.750 659.749" stroke="none" fill="#e9b37b" fill-rule="evenodd"/><path d="M 180.254 511.424 C 164.249 514.481, 151.840 523.475, 145.259 536.790 C 141.568 544.258, 141.500 544.607, 141.500 555.969 C 141.500 567.005, 141.651 567.848, 144.750 574.144 C 150.778 586.389, 160.733 592.845, 183 598.951 C 201.394 603.994, 207.115 605.946, 209.893 608.124 C 218.867 615.160, 215.612 626.959, 203.724 630.489 C 190.402 634.446, 171.759 630.346, 157.748 620.380 C 155.134 618.521, 152.576 617, 152.063 617 C 151.551 617, 147.697 622.697, 143.501 629.661 L 135.871 642.322 138.685 644.679 C 142.750 648.085, 160.484 656.505, 167.500 658.361 C 182.935 662.445, 202.619 662.440, 215.500 658.347 C 228.249 654.297, 239.107 645.218, 244.291 634.275 C 247.349 627.818, 247.500 626.936, 247.500 615.479 C 247.500 603.944, 247.369 603.192, 244.259 596.874 C 237.675 583.502, 227.058 576.883, 201.255 570.066 C 178.572 564.074, 173.600 560.907, 173.600 552.448 C 173.600 538.520, 199.216 535.740, 221.329 547.268 C 224.723 549.038, 227.781 550.620, 228.124 550.784 C 228.467 550.948, 232.202 545.642, 236.424 538.992 L 244.099 526.901 241.799 524.988 C 237.544 521.449, 223.560 514.925, 216 512.952 C 206.018 510.348, 189.572 509.645, 180.254 511.424 M 278 585.500 L 278 659 330 659 L 382 659 382 644.513 L 382 630.026 346.750 629.763 L 311.500 629.500 311.225 613.750 L 310.949 598 343.475 598 L 376 598 376 583.514 L 376 569.028 343.750 568.764 L 311.500 568.500 311.221 555.250 L 310.942 542 345.471 542 L 380 542 380 527 L 380 512 329 512 L 278 512 278 585.500 M 416.676 512.658 C 416.304 513.029, 416 546.108, 416 586.167 L 416 659 468 659 L 520 659 520 644.513 L 520 630.026 484.750 629.763 L 449.500 629.500 449.225 613.750 C 449.011 601.543, 449.236 597.979, 450.225 597.907 C 450.926 597.856, 465.675 597.743, 483 597.657 L 514.500 597.500 514.777 583.250 L 515.055 569 482.527 569 L 450 569 450 555.500 L 450 542 484.527 542 L 519.053 542 518.777 527.250 L 518.500 512.500 467.926 512.241 C 440.110 512.098, 417.047 512.286, 416.676 512.658 M 555 585.500 L 555 659 571.500 659 L 588 659 588 632.955 L 588 606.911 593.413 612.455 C 597.951 617.103, 599.395 618, 602.342 618 C 607.105 618, 609.341 615.629, 608.550 611.417 C 608.038 608.684, 608.463 607.542, 611.127 604.508 C 614.183 601.027, 614.389 600.950, 615.990 602.687 C 616.910 603.684, 625.669 616.763, 635.455 631.750 L 653.247 659 673.624 659 C 684.831 659, 694 658.804, 694 658.564 C 694 658.019, 686.129 646.639, 659.210 608.265 C 647.544 591.635, 638.013 577.460, 638.029 576.765 C 638.056 575.598, 647.907 563.888, 679.750 527.175 C 686.487 519.407, 692 512.815, 692 512.526 C 692 512.237, 682.808 512, 671.574 512 L 651.149 512 636.869 528.750 C 629.015 537.962, 614.919 554.450, 605.545 565.389 L 588.500 585.279 588.238 548.639 L 587.975 512 571.488 512 L 555 512 555 585.500" stroke="none" fill="#092625" fill-rule="evenodd"/><path d="M 0 512.001 L 0 1024.002 512.250 1023.751 L 1024.500 1023.500 1024.751 511.750 L 1025.002 0 512.501 0 L 0 0 0 512.001 M 0.496 512.500 C 0.496 794.100, 0.610 909.151, 0.750 768.168 C 0.890 627.186, 0.890 396.786, 0.750 256.168 C 0.610 115.551, 0.496 230.900, 0.496 512.500 M 794.093 367.017 C 782.061 373.649, 767.462 386.993, 758.503 399.549 C 748.668 413.331, 740.492 433.854, 737.509 452.248 C 734.650 469.871, 736.097 472.842, 740.503 458.397 C 743.510 448.538, 750.334 434.763, 757.511 424.063 C 768.293 407.989, 790.021 389.567, 808.313 380.990 C 815.096 377.810, 815.118 377.787, 813.313 375.648 C 809.969 371.686, 801.510 364.012, 800.500 364.024 C 799.950 364.031, 797.067 365.378, 794.093 367.017 M 824.500 385.434 C 814.479 388.686, 807.814 391.862, 797 398.538 C 784.772 406.087, 765.812 424.707, 757.836 437 C 746.323 454.745, 740.149 468.221, 749.882 454.362 C 759.527 440.627, 780.395 423.356, 798 414.537 C 809.393 408.829, 827.969 403.414, 838.295 402.790 C 842.658 402.526, 843.040 402.305, 842.545 400.328 C 841.577 396.462, 833.862 382.998, 832.663 383.081 C 832.023 383.126, 828.350 384.185, 824.500 385.434 M 667.469 393.402 L 659.500 400.803 662.500 401.546 C 666.309 402.488, 677.392 407.966, 677.833 409.125 C 678.017 409.606, 678.692 410.005, 679.333 410.011 C 682.376 410.038, 699.547 424.862, 707.119 434 C 714.869 443.351, 722.586 456.167, 725.936 465.250 C 726.948 467.994, 730 469.120, 730 466.750 C 730 465.504, 728.029 456.296, 726.047 448.281 C 723.469 437.857, 715.675 421.725, 709.500 414.030 C 703.245 406.237, 692.664 396.353, 685.407 391.524 C 680.841 388.486, 676.730 386, 676.272 386 C 675.814 386, 671.853 389.331, 667.469 393.402 M 625.632 407.904 C 622.713 411.234, 615 424.525, 615 426.224 C 615 427.825, 616.164 428, 626.824 428 C 660.295 428, 692.977 439.409, 712.250 457.823 C 717.217 462.569, 716.988 461.124, 711.583 453.627 C 702.231 440.653, 683.976 425.369, 669.996 418.809 C 658.233 413.288, 644.371 408.960, 632.766 407.185 C 628.012 406.458, 626.792 406.581, 625.632 407.904 M 830 415.102 C 807.467 418.659, 786.825 428.996, 767.304 446.496 C 763.012 450.344, 757.925 455.253, 756 457.404 C 752.870 460.901, 753.345 460.675, 760.500 455.259 C 778.895 441.335, 794.793 435.328, 819.684 432.898 C 831.473 431.746, 848.541 432.693, 859.883 435.127 C 862.293 435.645, 864.454 435.880, 864.684 435.650 C 865.216 435.117, 861.329 419.817, 859.818 416.501 C 858.693 414.032, 858.532 414.001, 847.089 414.117 C 840.715 414.181, 833.025 414.624, 830 415.102 M 621.500 441.656 C 612.276 442.753, 602.620 444.209, 601.359 444.692 C 600.565 444.997, 599.074 446.895, 598.047 448.909 C 595.499 453.903, 588.845 473.179, 589.458 473.791 C 589.730 474.063, 592.550 473.351, 595.726 472.208 C 621.094 463.082, 651.806 461.569, 679 468.105 C 689.560 470.643, 706.052 478.583, 711.920 483.954 C 714.351 486.179, 716.664 488, 717.061 488 C 717.458 488, 718.076 486.832, 718.435 485.405 C 719.699 480.365, 709.831 468.490, 697.475 460.182 C 688.714 454.292, 673.688 447.375, 664.576 445.039 C 652.516 441.947, 632.365 440.364, 621.500 441.656 M 813.500 445.014 C 797.423 448.311, 784.539 453.650, 770.773 462.719 C 764.111 467.108, 751.270 478.049, 749.692 480.681 C 748.909 481.988, 752.319 488.021, 753.818 487.983 C 754.193 487.973, 755.625 486.772, 757 485.313 C 760.506 481.594, 771.466 474.745, 778 472.191 C 801.303 463.081, 834.905 462.990, 871.590 471.939 C 878.136 473.536, 883.672 474.661, 883.894 474.439 C 884.502 473.832, 879.873 454.884, 878.385 451.883 C 877.269 449.634, 875.781 448.969, 867.793 447.146 C 848.250 442.688, 828.608 441.916, 813.500 445.014 M 725.993 484.893 C 723.623 486.485, 721.096 488.847, 720.378 490.143 C 719.381 491.941, 719.062 500.038, 719.035 524.250 L 719 556 735 556 L 751 556 750.994 526.750 C 750.989 497.251, 750.478 492.009, 747.243 488.282 C 741.404 481.554, 732.968 480.209, 725.993 484.893 M 182.500 510.414 C 172.786 512.032, 167.239 514.144, 160 518.979 C 141.361 531.427, 134.920 556.032, 145.048 576.095 C 150.704 587.299, 162.999 594.437, 187.905 600.975 C 205.994 605.724, 210.784 608.036, 213.330 613.246 C 215.641 617.974, 214.877 621.905, 210.892 625.802 C 206.944 629.661, 201.689 631.100, 191.542 631.100 C 185.138 631.100, 181.299 630.479, 175.335 628.476 C 167.562 625.867, 157.387 620.376, 155.003 617.504 C 154.317 616.677, 153.178 616, 152.472 616 C 151.063 616, 136 639.909, 136 642.144 C 136 645.314, 153.241 654.580, 166.636 658.610 C 178.488 662.175, 198.124 663.063, 209.442 660.545 C 235.202 654.814, 250.426 635.952, 248.653 611.964 C 247.819 600.684, 244.759 593.667, 237.544 586.484 C 228.783 577.763, 222.157 574.892, 192.677 567.048 C 182.476 564.333, 177.396 561.666, 175.521 558.040 C 166.500 540.596, 196.867 534.500, 222.742 548.561 L 228.984 551.954 230.376 549.727 C 231.142 548.502, 234.520 543.129, 237.884 537.786 C 241.248 532.443, 244 527.476, 244 526.747 C 244 525.252, 236.277 520.355, 227.910 516.545 C 214.623 510.495, 196.608 508.063, 182.500 510.414 M 277.244 585.750 L 277.500 659.500 330 659.500 L 382.500 659.500 382.500 644.500 L 382.500 629.500 347.250 629.237 L 312 628.974 311.789 622.237 C 311.674 618.532, 311.641 611.675, 311.718 607 L 311.857 598.500 344.178 598 L 376.500 597.500 376.500 583 L 376.500 568.500 344.320 568.236 L 312.140 567.972 311.504 562.736 C 311.154 559.856, 311.010 554.125, 311.184 550 L 311.500 542.500 346.250 542.237 L 381 541.974 381 526.987 L 381 512 328.994 512 L 276.987 512 277.244 585.750 M 416.244 585.750 L 416.500 659.500 468.750 659.759 L 521 660.018 521 644.509 L 521 629 485.500 629 L 450 629 450 613.500 L 450 598 483.027 598 L 516.053 598 515.777 583.250 L 515.500 568.500 482.750 568.236 L 450 567.973 450 554.986 L 450 542 484.500 542 L 519 542 519 527 L 519 512 467.494 512 L 415.987 512 416.244 585.750 M 554.244 585.726 L 554.500 659.500 571.500 659.500 L 588.500 659.500 589 634 C 589.424 612.386, 589.698 608.848, 590.802 610.781 C 592.605 613.940, 599.831 619, 602.539 619 C 606.560 619, 609.429 615.726, 609.218 611.376 C 609.076 608.446, 609.669 606.778, 611.648 604.541 L 614.264 601.581 616.249 604.041 C 617.340 605.393, 625.894 618.200, 635.259 632.500 C 644.623 646.800, 652.783 658.831, 653.392 659.235 C 654.634 660.059, 695 660.295, 695 659.479 C 695 658.546, 689.894 651.073, 664.787 615.259 C 651.195 595.871, 639.632 579.182, 639.092 578.172 C 638.266 576.628, 641.855 571.978, 661.672 548.918 C 674.632 533.838, 686.666 519.925, 688.414 518 C 694.173 511.658, 695.122 512, 671.782 512 L 650.447 512 620.095 547.520 C 603.402 567.056, 589.462 583.215, 589.117 583.428 C 588.772 583.641, 588.493 567.769, 588.495 548.157 L 588.500 512.500 571.244 512.226 L 553.987 511.953 554.244 585.726 M 838 540 L 838 568 773 568 L 708 568 708 583.889 C 708 595.958, 708.300 599.767, 709.250 599.731 C 709.938 599.706, 712.181 599.756, 714.235 599.842 L 717.970 600 718.235 629.750 L 718.500 659.500 734.816 659.775 L 751.132 660.050 750.995 632.275 C 750.920 616.999, 750.890 603.350, 750.929 601.945 L 751 599.391 794.250 599.763 L 837.500 600.135 837.765 630.068 L 838.029 660 854.015 660 L 870 660 870 586 L 870 512 854 512 L 838 512 838 540" stroke="none" fill="#fbfaf8" fill-rule="evenodd"/></svg>